/* XPM */
static char *_7375879b7f545dbe305a6eece6ab907YwL48tLgWacEKDdf[] = {
/* columns rows colors chars-per-pixel */
"128 128 78 1 ",
"  c black",
". c #1B1B1B",
"X c #2B230F",
"o c #3F2F17",
"O c #232323",
"+ c #272727",
"@ c #2F2F2F",
"# c #373737",
"$ c gray23",
"% c #4F0000",
"& c #5B0000",
"* c #670000",
"= c #730000",
"- c #7F0000",
"; c #43331B",
": c #4B371B",
"> c #533F1F",
", c #5F4323",
"< c #6B4727",
"1 c #774F2B",
"2 c #7F532F",
"3 c #434343",
"4 c gray28",
"5 c #4B4B4B",
"6 c gray34",
"7 c #5B5B5B",
"8 c gray39",
"9 c gray42",
"0 c #6F6F6F",
"q c #777777",
"w c gray50",
"e c #8B0000",
"r c #9B0000",
"t c #A70000",
"y c #B30000",
"u c #BF0000",
"i c #A73F00",
"p c #CB0000",
"a c #D70000",
"s c #E30000",
"d c red",
"f c #874307",
"g c #B74700",
"h c #AF7B1F",
"j c #875733",
"k c #8F5F37",
"l c #9B633B",
"z c #A36B3F",
"x c #AB6F43",
"c c #B37347",
"v c #BF7B4B",
"b c #CB7F4F",
"n c #CF8353",
"m c #D78B5B",
"M c #D7BB43",
"N c #FFA35B",
"B c #DF9363",
"V c #E79B6B",
"C c #EFA373",
"Z c #F7AB7B",
"A c #838383",
"S c #8B8B8B",
"D c #939393",
"F c #9F9F9F",
"G c gray67",
"H c gray70",
"J c #B7B7B7",
"K c gray75",
"L c #FFB383",
"P c #FFBB93",
"I c #FFBF9B",
"U c #FFC7A7",
"Y c #FFCFB3",
"T c #FFD7BB",
"R c gray78",
"E c LightGray",
"W c #DFDFDF",
"Q c #FFDBC7",
/* pixels */
"@@@@@@@@@@@@@@@@@@@@@@@@@@@@@@@@@@@@@@@@@@@@@@@@@@@@@@@@@@@@@@@@@@@@@@@@@@@@@@@@@@@@@@@@@@@@@@@@@@@@@@@@@@@@@@@@@@@@@@@@@@@@@@@@",
"@@@@@@@@@@@@@@@@@@@@@@@@@@@@@@@@@@@@@@@@@@@@@@@@@@@@@@@@@@@@@@@@@@@@@@@@@@@@@@@@@@@@@@@@@@@@@@@@@@@@@@@@@@@@@@@@@@@@@@@@@@@@@@@@",
"6666666666666666666655OFRWWWWWWWWWWWWWWWWWWWWWWWWWWRFOOO$$$$@qFREEEEEEEEEEEERRRRGw6@@@OO$355555555555555555566666666666666666666",
"6666666666666666666655FRWWWRRRRGRGRRGJJGJGRJRRJDDwGWRFOO$$$5FRJGGGFFFFFFFFGFFFFFFwq6@@OO$555555555555555555566666666666666666666",
"6666666666666666666655RWERJGGEGGFGGGGGGGGFFFJJFFFDwGDDOO$$@FEJFFDDFDDDDDFDFDDFFDFw96$@OO$37qwwwwwwwwwwwwqq9965555555555555555555",
"5555555555666666666655MMMMMMMMMMMMMMMMMMMMMMMMMMMMMMMMMMMMMMMMMMMMMMMMMMMMMMMMMMMMMMMMMMMMMMMMMMMMMMMMMMMfqq99655555555555555555",
"wwwwwwwwwwwwww66556655hfffffffffffffffffffffffffffffffffffffffffffffffffffffffffffffffffffffffffffffffffhfqJGGGGFGFGFFFDwwwwwwww",
"JJJJJJJJJGGFFDw6$56655hf,,,,,,,,,,,,,,,,,,,,,,,,,,,,,,,,,,,,,,,,,,,,,,,,,,,,,,,,,,,,,,,,,,,,,,,,,,,,,,,hhfwRRRRRJJGGJJJJJJJJJJJJ",
"RRRRRRRRJJGFFFw9$56655hf,$$$$$$$$$$$$$$$$$$$$$$$$$$$$$$$$$$$$$$$$$$$$$$$$3$$$$$$$$$$$$$$$$$$$$$$$$$$$$$hhfDWWWWWWWEEEEEEEEEEEEEE",
"RRRRRRRRRRGGDDq9$$5655hf,766666767766667676767766776667776766777677667666666767666667677666676767677666MhfwRRRRRRRRRRRRRRRRRRRRR",
"DDDGFDFFFFGGDwq6$$5655hf,9wqw99wqq99q9qqwqw9q99qq9qwwq79qqq9wqq9q9qqqqwqq9wwq99wqw99wqq99q9qqwqw9q99qqqMhf9FGFDFDGDFDFGFDFDFFFFF",
"DwDDDDDFDFGGDwq6$$3655hf,7qq9ww9q9wwqw9qq9qq9q9qwqq999wqwqqq9qqq9w9qq9q99wqqqq9qq9ww9q9wwqw9qq9qq9q9qwqMhf6GFGFFGDDFFDFDDFFGDGFF",
"GwGFwDDDDDDGDwq6$$3555hf,9q9w9wq9wqq9qwwqwwwwqwq9w977766533$$$$$$$6799qqqqqwwwwq9w9wq9wqq9qwwqwwwwqwq9qMhf7DFFDFDFFDGFFFGGFDFGGG",
"wDDFwFDFwFFGwq96O$$555hf,99wwq9qqq99qwqq9qq999qq7677655553$$$@@OOOO##$6qw999qqq9wwq9qqq99qwqq9qq999qqwqMhf7FDFFGDGGDFFFDFDDDGFGG",
"FwGwDDFDwDFFq965O@#$55hf,99q99qqq9qqq999w9qw9q76666996666655$##@@@@@OO#$6qw9qqq9q99qqq9qqq999w9qw9qqqqqMhf9FFFFDGDDFDGFFDFDGDDFF",
"DFwDDDDwDGDDq963O@#$55hf,9qqqq9q9q99q9wq9q9q77669wDw9996676653$$$$##@OOOO$6q9qqqqqq9q9q99q9wq9q9qqw99wqMhf7FGDGDFGFDDFFDFDFDFDDF",
"wDwDwDwDDwDD9653O@@@55hf,9wqq9q9q9qqqqqqqqq666wFwFw996669796653$$$$555$##@O$69qwqq9q9q9qqqqqqqqq9q9qw9qMhf9GFDFFDDFDFwDFDwDDDFDD",
"FFDDDGDGDDFw9653O@@@55hf,7q9qq9qqwq9999q99q6qqDwq996769969966653$$$5665$$#OOO$6q9qq9qqwq9999q99qqqqqqqqMhf7DFDDFGFDDFDFDwDDFDDwD",
"DDDwDFFDDFDq655$O@@@55hf,9qwqqw9q99wqqqqwq777766q966669977996665$$5666655$@OOOO6wqqw9q99wqqqqwqqqqqq9wqMhf7GDDDDDDFFwFFwFwDDDwFw",
"DwGDGDFFwwq965$@O@@@55hf,9qq99qwqqw9wqq9qqvmBvvk6766779966699665$$6677636$#@OOOO699qwqqw9wqq9qq9w9qqq9qMhf7FFFDDDFDwDwDFwwwDwFwD",
"qDqwqqqq66553$@OO@@@55hf,9qqwqq9w9w9qqqw9wYILCNBv6766669766qq666O$66969$33$#OOOOO6qq9w9w9qqqw9ww9qqqwqqMhf6DDDDwDwDwwDwwDqDqwqD9",
"q99999996533$@OOO@@@55hf,9wq9qqq9q9w99w9qCTTYCZnmv635,:666qqqq65O#99969$65$##OOOO$qqq9q9w99w9q9qqw9q9qqMhf6wwqqwqwq9wqwqwq9q9q9q",
"6666655553#@OOOOO@@@35hf,99qwq9qqq9qqqqqqYQYIPLZNmc6<jj,769qq965O$99qqq#63#@@OOOOO69qqq9qqqqqqqwq9wqqwqMhf3966666666669696565565",
"5333$$$$$#@OOOOO@@@@35hf,99qqqqqqqw9w9q9IQUYUPUIZNm62xj166669665O#66969###O@O@OOOO$qqqqw9w9q9qw9wq9wqqqMhf3665555665565655555555",
"@@@@OOOOOOOO@@@@##$$56hf,9q9q9qqq9qq9qwDTTIPUUIPPZBbxBnk$3555633OO$5665$@@O@O@OOOOOqqq9qq9qwwqq99qq999qMhf@5$$$$$$$$$$@@@@@@@@@@",
"OOOOOOOOO@@@@@@###$$56hf,9wq9wq9qqqqww9IUTUUUPUICNNBnBNk$$355363OO#$555$#@OOOOOOOOOq9qqqqww9q9wwqq9qq9qMhfO$$$$@@@@@@@@@@@@@@@@@",
"@@@@@@@@@@@@@@@@##$$56hf,99ww9qqqq99q99YTUPUIUUIPNBmmBBz$$$55563OO#$$$$$@@OOOOOOOOOqqqqq979q9w99q9wqqwqMhfO###@@OOOOOOOOOOOOOOOO",
"@@@@@@@@@@@@@@@@##$$56hf,9q9qqqw9q9wwq9UUYUUIIUCNVBBNNVx$$$$33$$O:$$3#$#@OOOOOOOOOOqw9q9wwqw9qqqqqq999qMhf.@@@@@@@OOOOOOOOOOOOOO",
"$$$$$$$$$$$$$$$$$$$$56hf,9wqqq99wqq9qqYnvVUUUUPNNNNBNmVc$$$$3$$$O:#$$3#@OOOOOOOOOOO99qqq9qq9q9qqqwqqqqqMhf.@@@$$$$$$$$$$$$$$$$$$",
"$$$$$$$$$$$$$$$$$$$$56hf,9q99wqqq9qqqqjXOknNCICNNVNNNZNv111111111<$$$O@OOOOOOOOOOO$qqqqqqqq9ww9qq999qwqMhfO$$$$$$$$$$$$$$$$$$$$$",
"6533$$$$$$$$$$$$$$$$56hf,99w99qqqqqq9qqOOjBNNPPNBNVNZNPvvcxcvvvcvnk1:OOOOOOOOOOOOO3qqqqqq9qq9q9qqwwwq9qMhf@333335555555555555555",
"66666666655555$$$$$$35hf,799wwqq999qq9qj: lmmCILNNLVCPZCNNNBNVvNnvxx1:OOOOOOOOOOO$7qq999qq9qqqw99q99qqqMhf@555555555555555555555",
"FFFFFDDDDDwq999996$##$hf,9wq9qqqqwq9w9BkjOvlvNUICCZPIPNZBNBBnVBnUULm21;OOOOOOOOO$6qqqqqq9w9w99qqw99qq9qMhf7FFFFFFFFFFFFFFFFFFFFF",
"JJJJJJJJJGGFFFFDw9@@@#hf,99q9qqqw9wq9FPl,1nxNBPLUICPLVLNNBnBVnVUZnnNn<,OOOOOOOOO59qqqw9wq9w999q99q9qqwqMhfqJJJJJJJJJJJJJJJJJJJJJ",
"WWWWWWWWWWWEJGFDw9$#@#hf,9qqw9qqqw99FUZxn<bNUUIIIUUCLLNVBnNnnnBNxmZCV,,oOOOOOOO39w9qqqw999wqwq9qwqqqq9qMhfDWWWWWWWWWWWWWWWWWWWWW",
"RRRRRRRRKKRKJGDwq9$#@#hf,6q9qw9q9qwFUZBvBPNCPTYUIILPNBBmmnvnvBBk,,xZV,:;OOOOOOO69qw9q9qwww9qq9wq99wqq9qMhfwRRRRRRRRRRRRRRRRRRRRR",
"JGJJJGGGGFGFDFwqq9$#O#hf,9qwq9qqq99YPNTBcCUUTTTYULLZNNmVnmnvBvnlxj1Zn,:;OOOOOO$qwq9qqq9999qq9w9qwq99wwqMhfwJJJGGGGGJJGGJJJJGJJJJ",
"JGGGGGGGGFGDFDwqq9$#O#hf,9wwqqqqq9qccvnBlmLTTTYIZZNNBBVvBnnmnnnvxBvZv;::;OOOOO6wwqqqqq9qqqw9w9wqwqqw9qqMhfqGGGGGGJGJGGGGGGJGGGGG",
"DFFGDDDFDGGDGFwqq9$#O#hf,99qwqqqqwqqqlckxvNIYUILNNNNBmvBvnnvnnvlPBBnx;;,;OOO@$q9qwqqqqwqqqqw9w9q9qqqq9qMhf9GFGFGGFFFGGGFFFDFFGFF",
"GDFDGGFGGDFGDFwq96$#O@hf,9q99qq9qq9wqwkcmmvLCLCNNNNBvnBvvmvvvnvBmVBl1;>,;OOO#6qq99qq9qq9wq99w9q9q9q9wwqMhfqFGFFFGGFFDGDGFFGDFDFF",
"DFGGDFFFGFDJGFwq96$#O@hf,7qqww9qqqwq9wkBNNVLLLNBBBBBnnvnvcvcvvmBnnx1;;>,;OOO#99qqww9qqqwq9qw9wwqqqqq99qMhf9GFJFFFDDFGDGDGGDFGFDG",
"GDFDGGFDFGGFDDwq96$#O@hf,9wq99qwq9w9wwcNZNNILLNBNVNVnvBvnxxxllxcxk,;;>,,;OO#6qwwq99qwq9w9w9qq9qqqqqq9qqMhf9FGDFGFFFFDGFFDFGDFDGF",
"FGGDFFFGFDFDJFwq96$#O@hf,9999wq9qq99qwxvBZZIIPZNBNBnBmxvkxkjjjjk2;;;><<,;o,6qqq999wq9qq99qwqwqq9q9wqwqqMhf7DGFGFGFDGFDDGDDFGGFFD",
"GDFGGDFFGGDDGFw996$#O@hf,9wqq9qw9qwqqqkkxBPLIICZNBBNmnvxxljjjkj2j1,,211,;;>6qq9wqq9qw9qwqqqqq9qqqq99qqqMhf6FDGDFDDGFDDDFFFGDFGFF",
"DDGFGGFDGGFGFFw966$#O@hf,9q9q9q9qw99qqccncIIZLCNNNNnnncxl1jjkj21jk22j1<,;;<9wwqq9q9q9qw99q999q999qq999qMhf7GDDGGFDFFDDDDGGDDGDJG",
"FGFGDFFGGFGDGFw965$#O@hf,7qqqq9wq99wqqbCnNBNNZPNZNBBnnxxjkkjj212kxxlj1<,;;,wq99qqqq9wq99wqqwqqwqwqqq9qqMhf7FFFDDGDDDFDGDGFFGFGDF",
"GFGFFDJDDFDFGFw965$#O@hf,99qq9qqqqw9qqlnVBBNNNLZZNNBnvclkjjjj12jkxkkk1<,;;,9qqq9qq9qqqqw99qqqq999q9qqqqMhf9FDGFDDGDGFFFFGFGFGFDF",
"FGDGFGGGDFFFDFw963$#O@hf,9w9qwq99q9wqqlBNVBBNNLLNVmvcclxljlljjlxvxcx11,:;;,k99ww9qwq99q9wwq99qwqqqqqw9qMhf7FDGDFDDDFDGDDDGFGDFFG",
"DFGGDGFFGGDFDFw963$#O@hf,799q99ww9wq9qbmBBmmBBNNmBnvvlxxjlklxxxxxlxj1>:;;,jkkw999q99ww9wq9qqwq99qwq999qMhf7FGGFGDDFFDDGDGDDFGGDD",
"DDFDDDGDDFDFDDq653$#O@hf,9qwqqwqqw99w9xvnnmnBBBBBvxxxjkkljklcvxxck1,::;>jjjj<kwqwqqwqqw99w999qqw99q9qwqMhf7DFGGFDDFFFDFFDDDDFFDD",
"wwDDDDDDDGDDDw963$$#O@hf,99w99q99qqq9wwcvvvnnnncxxljjlxxkjkvmnvck1,:,1jljj<1<k99w99q99qqq9www9qqww9wqqqMhf5wwwwwwwwwwwwwwwwwDDDw",
"999999999wwwq9653$$#O@hf,9w9qqqqq9wqq9q9qw9lllllcxxlxxzlkkxnvvcj<,kllxljj,<,1j9w9qqqqq9wqq9q9qw9q9w999qMhf@999999999999999999999",
"566667799999653$$$$#O@hf,999qw9qqq99wq9q9q9qwlllcccvczlkkxxnnvxjkkxljljjj11111199qw9qqq99wq9q9q9qw9wqqqMhfO$55555555555555566665",
"55556566666533$$$##@O@hf,7qqq9qqqqqq9qqqwqwqqq9qxxcbclkjlvmNvvclxxljljk1j<1<:1<1jq9qqqqqq9qqqwqwqqq9q9qMhf.@#$$$$$$$$$$$33555555",
"555555$$$$$$####@OOO@#hf,9w99wqqq9qqqqqq9qq9wq9qqvvncxkxcvBnnvkljjlljjl11<<:<<1j11jqqq9qqqqqq9qq9wq9qqqMhf.OOOOOOOOOOOO@@@##$355",
"333$$$######@@@OO@@@#$hf,999w9qwqqqqq9wq9qqw99wqqwnbvxxvvBVvkjkjlxkjxxkl1,,<jjjj1j<1jqqqqq9wq9qqw99wqqqMhfO@OOOOOOOOOOOOOOO@#$$$",
"OOOOOOOOOOOO@@@@@#$335hf,9qwqw9wqwqqwq9qq999qq9q9xvxxlvxnmvxkklxjxlxkl1:::111jj111j<11jqqwq9qq999qq9q9qMhf@$@@@@@@@@@@@OOOOOOOOO",
"OOOOOOOOOOOO@@$$$35655hf,9w999q9q9qq9q9qq9q9q9qqvxjxxlcvnvjkkcxkxxxx1>>><1lxxxxxlkkjjj11j9q9qq9q9q9qqqqMhf#65$$$$$$$@@@@@@OOOOOO",
"5355556669999999999963hf,79wqqqqqwqqqqqqqw9qqqqvxj,jlvcxljlccccvvv1,>jlkkccnvvxcnvvxlljj11jqqqw9qqqqwwqMhf#6666665555$$$$$$$$$$$",
"559999qqDDFFDDDDDDDD55hf,9q9qqwq999wwqq9q9wqqqvxj1,,jxvllccvnxcx1>,1klcnvmnnnvnnvnnmvvxlj111jq9wqqqqqqqMhf@56666666666655$$$$$$$",
"99DDJJWWWWWWEEEEEEGG6$hf,999qqqqqqwq999q9w9qqvx1111<,cvcvvBvcv1,>jlxcbcvvccxnnBvvnnnnnBvxl<11jw9qqqq99qMhf7GGFDq9966555555555566",
"9qDDJGGGGGGGGGGGGGFG6$hf,9wqw99wqq99q9qqwqw9vljk1<<jcxlvnnnxkX><klvvvvnvnvnmvvvmnmnvmnBvxvlj11jw9q99qqqMhfwEJGGFDwwq996655555566",
"9wGFDDGDDFFFGJGRFFFF6$hf,7qq9ww9q9wwqw9qq9qzlk1jj1xvcnBBBBc1X,jklvxvvcvvcnvvvnvnvcmmvnvnBcxj1,<jq9q9qwqMhfwRRJJREWWWWWWEGDq65556",
"9wGFDDDwFDDwFFFFGFFF6$hf,9q9w9wq9wqq9qwwqwlkkjj1knvBBBmBnv<X,,1xvcvnvvnnnnvnnnmvvnvmnvBnnccxj,,1jqqwq9qMhfqRJRRJJJJJRJRJJGw65$56",
"9wRGDGGDDDDDFGFFFFGD6$hf,99wwq9qqq99qwqq9lj11<1lnnBVNNNnv<X>1jxcxvnvmmvnnvcccxlkcvvlvccxcvvl1;:,,19qqwqMhfwJRJGGGFGFGFDFDDw65$56",
"9wRGDDFDGFwFDDFFGDFD6$hf,99q99qqq9qqq99991<<<1xnnBVNNNnx1X,j1lvxnvvvvcvcvvclxlllxlxxljjkjjjj1l1:::1qqqqMhfqJGJGFGGFFGDFwDww65$56",
"9wRGDGFGwGDDGFFDDFGF6$hf,9qqqq9q9q99q9wq1o,<1jl:jNCLVmv1X;,jlcvvvvvmnmvvxxlxlllclxxlljjj1k1,,<j1,:,99wqMhfqRJGFGFGFGDDwwwq965$55",
"9wRGDDwFGDDwDFDJDDFF6$hf,9wqq9q9q9qqqqqj,:X,1kjoXjBLBc<X:,1lvcxnvnnlvxklxxxllklxljjxllkxxjj11::,,:;qw9qMhfqGGFGFGFGDFFwwq9q65$$5",
"9wRJDJDGDwDGDDDGFFDF6$hf,7q9qq9qqwq9991j>>::1l1XXX1Bv1o;<jxccvmvvnvnxxl1j<jxkxklljkkxlxlkjj11,;X:,:qqqqMhfqGFFFGFFDFDwwwqq965$$5",
"9wRKFDFDGDwDFDGFDFFF6$hf,9qwqqw9q99qqlkjj1:1xj><1XX,:;;1jxcnmnvnncclxjkj,>1kvcvcvvcvxvxkclxjj1,:X,:q9wqMhf9FGGFFFFwDwwqww9q65$$5",
"9wRGGDDDFwDDwGDGFDDD6$hf,9qq99qwqqw9wlljj1,1l1,1,1>>,1<1kcvnvmBnvvvcclj,,o:,jvccvxxcnvxxjxxjjj,>>::qq9qMhf7GGFFFFDDwwwwq9q965$$5",
"9wRJDGwDwDwDDDFDwDwD6$hf,9qqqqq9w9w9xkkk111,j,111<11<<jvnvmVnmmncvclx11,o:1vcvcnnnvcvnxxkvclx<,,;::qwqqMhf7GFGFFDDwwwDqwq9q65$$5",
"9wRKFGDFwDDDGFwDFwww6$hf,9wq9qqq9q9wjjljj<1<k>1lxxljkcvvxmBnncvBvxxxkj,>X1klvxnmnlvnmxxkxxcxk1>,::;q9qqMhf7FGFFDFwDwwqww9q965$$$",
"9wRKGDGDDGwGDDDwDDwq6$hf,99qwq9qqq9qxlkjj11<:jjxcxxxlvccccvxlvBnxvxkj1,oXk1vvvnvcvnvnlxjkvvll1,,:;>qqwqMhf6DFDDwDqwwqwq9q9665$$$",
"9wRGGGDDDDGDFDwDwDqw6$hf,99qqqqqqqwkxjjjj111,1kxxxlccxccjxjjkcvvvkxjj,;XX,vcvmnxvnBnvlxjjvcll1,,:::wqqqMhf3qwwwqqw9q99996965$$$$",
"9wRJDGwGFFDwDwDDFFwq6$hf,9q9q9qqq9qxkkllj1111xlllxvcnBBNnccvxj1lxxl1,,;XXxxcvnccvBmnvxk1lxcxl1,,:::999qMhf@5666666666666665$@@$$",
"9wRKFFGDFDDFDDJDDDww6$hf,9wq9qq9qqqxxljj11111lxxlvBBnmNnvcvxvl11jx1,,:XXjvvmvxcmnnBvllj<lvnkj1,,:::qq9qMhf.O@@@@@@@@@@@@@@OO@$$$",
"9wRJGGFDDFFDFDGFDwFw6$hf,99ww9qqqqxljjk1j1111cxxnBBBBBNvncvbvk1jlj<<>;oxlllxvvvvNVxvxk11lkvl11,,:;>qqwqMhf.@@@@@@@@@@@@@@@@@$$$$",
"9wRKFFDFDFDFDGFDFDww6$hf,9q9qqqw9qlxckljj111jxlcBBBNNNVvvnvvj,1lkj1,<XjlxxlvcvnBBnvxx1<<xvmxj1,,:::999qMhf@$$$$$$$$$$$$$$$$$$$$$",
"9wRGGGDDGGDGDGGFDFqq6$hf,9wqqq99wqxkxljj1111xxxvVNNNNmvvvvvl,1xjk1,,,GFGGVnvnvmNnnvl111,xvVkj>,::::qqqqMhf@5$$$$$$$$$$$$$$$$$$$5",
"9wRKDDGGFFGDGwDwFDFw6$hf,9q99wqqqqxxxljkj111jlkvncnnvvvvvvv1,jxj<,,,G8$HRRGGnnVBvccj<<,,cnNkj,,::;59qwqMhf#6666666666666666$$$56",
"9wRGGFFGFFJGGDDFFDwq6$hf,99w99qqqlxkjkkjj11lcxxkj;X:jlvvvcj,1jj,,,,FG5+qGGGGFasnnx11<<,,cmNx1,,::>6wq9qMhf5wwwwwwwwwwwwwww95$$56",
"9wRGDFGDGFFDFFGDDwwq6$hf,799wwqq9lklljljj11lllxkk11XX:,lvnj;1k><,,GGG0O+SGGGFxpurj111,,,vVNx1,,:::69qqqMhfwEEEEEEEEEERRJGGw6$$56",
"9wRGDGFDDFDJDFFGDFqq6$hf,9wq9qqqxcxjxjlj11jclcvvvnv;;XXX,,;j1,,,qGGGGqOOO0GGGDlspr11<<,,vNBx1,,:>:9qq9qMhfDWWWWWWWWWWERJGFw9$$56",
"9wRKDFDJFDDGFFDDDwq95$hf,99q9qqqxjxk1ljj11jjxxnCNVx;;z2111<j,,,qFGGGG8O@OO6DGGwpaprr1<,,vmNl1,,:;:9qqDqMhfDWWWWWWWWWEEJJFD99@@55",
"9wKGGDFFGDGFDFGDFw965Ohf,9qqw9qxxvlxxlkk1<xxvzcnCVn>;cxjjjl,,,-qFGGGG$OA8..O8qw7apurr<,,vnVlj:;,;:qqq9qMhfwRRRRRRRJJRRRGDw99@@55",
"9wRKFFDGDGDGFDFwDw665Ohf,6q9qw9xxccvcjj11xxkxnznCBv,>vvjjj1,>etqFGGGFO.08#....47uuuyr=1jvvxj1::;o:wqq9qMhf9JRRJJJJGJJJGFww96$@$5",
"9wKGGGGDFDFDwFwwFw66$Ohf,9qwq9xlxlxxxj1<1llvcnCBVNv1,czkjk,>etugqFDD8.......@+67yyyyer-1jjj1<>o;;:99wwqMhf7GFGGGJGJGGGFDww96$@$5",
"9wJGDDGGDFwDFwwFww65OOhf,9wwqqlllxxxxx1j1cxvvnCCCNvj1xkjk,,etyudqFDS+..O#68qwq91ytreeee=ljk1,:oX;:qD9qqMhf6GDFFFGFGJFGDDwq96$@$$",
"9qFGFFFDFDDwDDwwwq65OOhf,99qwvvcxlkkl111jkxcvvmBBNncxjj,,x2rrtupsDF3.O8SDqqqq99,rrrrr-e==11:;;XX,:qqq9qMhf9FDJGGDGFGFDFDwq96$@@$",
"59FFFFDFDDwDwwwwwq6$OOhf,9q99cvllkjlk<1j1xlccvnNVNvxljk,kxlktrtsp9w8@8qqqqq9991reeer---=->:::oX;,:q9wwqMhf7GFFDDFDJFGFDDwq96$@@$",
"59FFFFDwDwwDwDwwq95@O@hf,7qqwvxkxxckjxxjlxxvcvmnnmvjj,>VBmvvk,uusswqqqqqqq9991ererr=-===*%>::;X;,7qq99qMhf9DFDJDDDGDFwDDwq965@@$",
"59FFFFwDwDwwDwD996@O@#hf,9wq9xcllkcjlllljlxcvvvcvvvjj,,kNBmnvcciispqw9999991rrrrr---e===&&>::o;,,9qq9qqMhf6FDDGFFFDFwDDwwq965@@$",
"55FFDDqwwwwww9665@O@@#hf,99cvmvxxxj11vcxxxkjjkjkjnvnNn1lxVBmvvvx1,uuaapyyrrrree=e=r==**&&%%;;;,,19wqwqqMhf6GDGFDFFFDDwDDwq965@@$",
"55qwww9999966665@O@@@#hf,9wvnvvncxxl1vvlllxjjjjjjcnCLvj;,lBBmnccl1>;ussattyrrrerr-===&*=*%%;;,,,1q99qqqMhf7DGDGFDGDFwDwDwq965O@$",
"55699966555533$O@@@@@#hf,9qcnvncbnxlvxxkxkkjllllkBZCIBx,;>xBVvvvcl1>;urrrrr=rrre===*&*=%%%X,,,,<<qq999qMhf7FDFDwwFDDDwDwwq965O@$",
"5533$$$########@@@@@#$hf,7qvvnvnvccnvvvxlxxxllxllBZIPBBl>,xBNVvxcvl1>Xutrrrree---==&**&%&X;,,,11lqqq9qqMhf6DFwDFwDwGwDwDwq965O@$",
"553$###@@@@@@@@@@@@##$hf,99qqcnvvvnvvvvxlklkxcnvVNZZBvVBzjcmNNVvcxkj,>Xueer-e--==*&**%%&X;,,,<<1jq9qqqqMhf7DFDFDFDDDDwDDwq965O@$",
"6666553$$#@@@@@@@@@@#$hf,9w9qvvvvnvmnnvxxxlxlnnVNNVvnvvBBcnVmBBvvkll1,>Xerer-=e==*=*&%%X:,,,<11jlqqqw9qMhf7DwDwDDwDwwDDwwq965O@$",
"665555553$###@#@@@@@$$hf,799q99nnvnccnnnvcxcvvcmNBVVmcnnnVBNNNVvvllxj<,;&-r=e-=&**&%&&X:,,,11jjj9wq999qMhf5FFwDFwDwDwFwwwq96$O@$",
"555$$$$$53333$####@@$$hf,9qwqqwvvnxqwvccvcvxlvvBNVBvvcvnnBVnBmnvmxlxjj,;Xrre==-****&%X:,,,<11jkxl9q9qwqMhf6wwDwDDwDwwDwDwq96$O@$",
"55$$$66qqqqq966$$$$$$$hf,99w99q99qqq9wwqqvnnnxvVVnvxkvxlkcvBNBnmvxx1j<,,;&-===&%&%%%X;,,,>1jlllxcw9wqqqMhf5wDwwDDDwwDwDwqq66@O$$",
"5$$9DFFJJJJGDwq6665$$$hf,9w9qqqqq9wqq9q9qbvncvxmnvcxvxclxlknvnvvvlxjj<1,;Xe==*&&%%XX;,,1<11jjxcxc9w999qMhf5wwwDwDwDwDwwq9965@O$$",
"5$9DREWWWWEEEJGFwq6666hf,999qw9qqq99wq9qqnnnnvmvvcvccxlccj1jjjjjj1j111<1:;==*%%%%X,,,,<11kklxxccvw9wqqqMhf5qwwqwwqwwwwq99965OO$$",
"$$wREERRRGGJREEERJFwq6hf,7qqq9qqqqqq9qqqwnVnnnvvvvccxccxxjjjjjj1jlj11<111;;&=%%XX,>1<11jkkxxxvvmvqq9q9qMhf5qqqqqqqqq9999965$@@$$",
"$$DRERJGGGGGJJJREWERGFhf,9w99wqqq9qqqqqq9qvnNnvvnvvnvnvvcxvxvxlljjjkjjkjj,o&%%,j1<1jjjjxlxvvvcvmvwq9qqqMhf#666666666666655$$@@$$",
"5$FERJGGJGGGGGGGJJEWERhf,999w9qwqqqqq9wq9qqnccmvvmnnnnnnvvvvcxxlxxljlljkj1,%%,1,1j1jlxxxxccBnvnnv99wqqqMhf@5555555555$$$$$@@$$$5",
"5$FEJGFFFFFFFFFFGGGRREhf,9qwqw9wqwqqwq9qq999qqcnnnBvmnBvnmnmnnnnxvccklxkx1j<<1jjkjlkxxmvvnnvBNnv9qq9q9qMhfO$$$$$$$$@@@@@@@@@$$55",
"5$FEJGDDDFDJFFDDFGGGGRhf,9w999q9q9qq9q9qq9q9q9qvnNnBBnmVnmvmmBnvnvvcbvxxxclxkxlxjklxxvvnncvvmmxq9q9qqqqMhf.@@@@@@@@@@@@@@@$$$555",
"5$FEJFDFFDDGFGGFDFDFFFhf,79wqqqqqwqqqqqqqw9qqqqww9wqcBVBVBNNBVBNNNBBmBBvvccnvvxcnvvvvnmBnvqqqqw9qqqqwwqMhf.@@@@@@@@@@@@@$$$$5555",
"5$FRJFGDGDGFDGDDDFDJDDhf,9q9qqwq999wwqq9q9wqqqqqqq9qqBBVBNBBNnmvmmnvnvnBnBBnnnmnvnnmvvvvnwqq9q9wqqqqqqqMhfO$$$$$$$$$$$$$$$555556",
"5$FJJDDGFFFFFDDFFDDGFDhf,999qqqqqqwq999q9w9qqqq99qwq99nBNBNNmbqw9qwqqwcvnvvcmnBnnmmmvqqwq999q9w9qqqq99qMhfO$$$$$$$$$$$$$55555566",
"5$FRJDGFDFGDFDGDGDGFDFhf,9wqw99wqq99q9qqwqw9q99qq9qwDq7vmBBnnqq9q9qqqqwvvcnnvccnvbvxnqq99q9qqwqw9q99qqqMhf@555555555555556666666",
"5$FJJGDGFDFDFDDGFGDGFDhf,7qq9ww9q9wwqw9qq9qq9q9qwqq999wqwqqq9qqq9w9qq9q99wqqqq9qq9ww9q9wwqw9qq9qq9q9qwqMhf@555555555555555666666",
"55FJJFGFFFGDDDFGFDGDDGhf,9q9w9wq9wqq9qwwqwwwwqwq9w9qqqqq9q9ww99wwqqw99qqqqqwwwwq9w9wq9wqq9qwwqwwwqqwq9qMhfDWWWWWWWWWWWWF55555566",
"55DGJFFFFFGJDJGDDGFGDGhf,79qqqqqqqqqqqqqqqqqqqqqqqqqqqqqqqqqqqqqqqqqqqqqqqqqqqqqqqqqqqqqqqqqqqqqqqqqqqqMhfwRRRRRRRRRJJJGw5555566",
"55qDDGFGGFFFRFFFFFGFFGhf,hMMMMMMMMMMMMMMMMMMMMMMMMMMMMMMMMMMMMMMMMMMMMMMMMMMMMMMMMMMMMMMMMMMMMMMMMMMMMMMhfqJGGFGFGGFFGGGGF655566",
"556qwwDFDJGGDGDGFFGGFFhffhhhhhhhhhhhhhhhhhhhhhhhhhhhhhhhhhhhhhhhhhhhhhhhhhhhhhhhhhhhhhhhhhhhhhhhhhhhhhhhhf7GGGGGGFGGGGFGFDw65566",
"56$6q999qqqqq9qqqqqqq9hfffffffffffffffffffffffffffffffffffffffffffffffffffffffffffffffffffffffffffffffffff9GGGFGFGGGGFGFFDw6$566",
"55$$$533333333333333333@..................................................################@@..353#3##33#379FFGFGGFGFGFFDFDw6@$66",
"55$$$@@@@@@@@@@@@@@@@@@@@@@@@@@@@@@@@@@@OOOOOOOOOOOOOOOOOOOOOOOOOOOOOO@####333333333333333$###6776565665676FFDFDFDFDFFDFDDw6@$66",
"553$#@@@@@@@@@@@@@@@@@@@@@@@@@@@@@@@@OOOOOOOOOOOOOOOOOOOOOOOOOOOOOOOOO@$$$#3355555566665553$$$qq999999996qqDDDDDDDDDDDDDDDq6@$66",
"6655$$$$$#######################@@@@@@@@@@@@@@@@@@@@@@@@@@@@@@@@@@@@@@@5$$$$$556666999965$@@$$wwwwwwwwwwwwwwwwwwwwwwwwwwwq96@$66",
"6655$$$$$$@@@@@@#$$$$$$$##@@@@@@@@@@@@@@@@@@@@@@@@@@@@@@@@@@@@@@@@@@@@@5$$$$$$$@@@@@@@@@@@@$$$66666666666666666666666666666$@566",
"666666655333333355555555$$$$$$$$$$$$$$$$$$$$$$$$$$$$$$$$$$$$$$$$$$$$$$$$$$$$$$$$$$$$$$$$$$$$$$65$$@@@@@@@@@@@@@@@@@@@@@@@@@@$566",
"666666665555555555555555$$$$$$$$$$$$$$$$$$$$$$$$$$$$$$$$$$$$$$$$$$$$$$$$$$$$$$$$$$$$$$$$$$$$$$6666$$$$$$$$$$$$$$$$$$$$$$$$$55566",
"$$$$$$$$$$$$$$$$$$$$$$$$$$$$$$$$$$$$$$$$$$$$$$$$$$$$$$$$$$$$$$$$$$$$$$$$$$$$$$$$$$$$$$$$$$$$$$$$$$$$$$$$$$$$$$$$$$$$$$$$$$$$$$$$",
"$$$$$$$$$$$$$$$$$$$$$$$$$$$$$$$$$$$$$$$$$$$$$$$$$$$$$$$$$$$$$$$$$$$$$$$$$$$$$$$$$$$$$$$$$$$$$$$$$$$$$$$$$$$$$$$$$$$$$$$$$$$$$$$$"
};
