/* XPM */
static char *_28c8cc442584c06c714a1e8107e261cSzQEYUp70W2z9xqS[] = {
/* columns rows colors chars-per-pixel */
"128 128 78 1 ",
"  c black",
". c #070707",
"X c #0B0B0B",
"o c #170F07",
"O c #131313",
"+ c #1B1B1B",
"@ c #2F1B0B",
"# c #372313",
"$ c #332B13",
"% c #3F2F17",
"& c #232323",
"* c #272727",
"= c #2F2F2F",
"- c #373737",
"; c gray23",
": c #430000",
"> c #4F0000",
", c #530707",
"< c #5B0000",
"1 c #670000",
"2 c #670B0B",
"3 c #730000",
"4 c #7F0000",
"5 c #771717",
"6 c #7F1B1B",
"7 c #43331B",
"8 c #4B371B",
"9 c #533F1F",
"0 c #732B00",
"q c #473323",
"w c #4F3B2B",
"e c #533F2F",
"r c #5F4323",
"t c #574333",
"y c #434343",
"u c gray28",
"i c #4B4B4B",
"p c gray31",
"a c gray34",
"s c #5B5B5B",
"d c gray39",
"f c gray42",
"g c #777777",
"h c gray50",
"j c #8B0000",
"k c #9B0000",
"l c #831F1F",
"z c #A70000",
"x c #B30000",
"c c #BF0000",
"v c #8B2323",
"b c #8F2B2B",
"n c #CB0000",
"m c #D70000",
"M c #E30000",
"N c #EF0000",
"B c red",
"V c #874307",
"C c #AF7B1F",
"Z c #C39B2F",
"A c yellow",
"S c #D7BB43",
"D c #FFFF47",
"F c #838383",
"G c #8B8B8B",
"H c #939393",
"J c #979797",
"K c #9F9F9F",
"L c #A7A7A7",
"P c gray67",
"I c gray70",
"U c #B7B7B7",
"Y c gray75",
"T c gray78",
"R c LightGray",
"E c #DFDFDF",
"W c #EFEFEF",
"Q c white",
/* pixels */
"================================================================================================================================",
"================================================================================================================================",
";;gURWWWRWWRWREEWREEEEEETKa=;;;;iiiagKKKgii===fRRREEEEEEEEEEEEEEEEEEEEEEEEEEEEERRa;==;agKKf;;;;;;;;;;;;fKEEEEEEEEEEEEERWRWRUg;  ",
";aKRUKUPPPUUHPPPHPPPHPHPHhi=;;;;igPWWRRTPKg==fKRRTETTTTPTPTTPUUPUPTTPUUPUPTUTTUURK;==gKPTRWRPai;;;;;;;;UEUHPHPPPPHPPPPPPUURPha  ",
";aKWUHPHUHPHPUHHPUHHPHHf;;;;;;;fPRWRUPPPPTHa=fPRTUUPPRPPKPPPPPPPPPPPPPPPPKKKUUKRKKf=;HTPPPURWRPi;;;;;;;UEUhhHHPHHHHPHHUPPHHPga==",
";aKWUKHHKHPUHPHPHPHPUhf;;&&;;;fPRUPUPPPUUTKg==KRTUPPPPPPRHPHHKKHPHPHHKKHPKKKhHHTTKf=iKTUPPPUPURPf;;;;;&iPEPKKHPHHKHPHHKHHKHHga==",
";aKRKKHUHKHKHHHHHHHhf;&&&&=;;;gRTKKPPPUUUPTKf=fPTUPTKPHRPTHhKHHhKTHhKHHhKPhHPHPKKf;=KTPUUPPPKKTRgg;;;;&&ihKUKHHKKPHHKKHUHHKKga==",
";aKRKKKPHPUHKHHUHhf;&&&=;;;;;;gRTTPTPTPPUUTKH=aKRKPPUHKKTPPHHHHHhPPHHHHHhhHKHPHHKa=iKTUPPTPTPTTRgg;;;;;;&iihUUKKHUUKHPHPKHHHga==",
";aKTHHHKPHPHPHKHfi;&=iigHHg=;=aUPPTKKPTHTPPTKf=gPTPPPPKTKHKHPKhHHHKHPKhHHHHHHhHKH;=KTPTHTPKKTPPUaf==gHHgi;;ahKUUKHPHPPPKHKHKga==",
";aKTPhKKPHPUHKHfa&=;igURRRUf==agUPPPHPHKKPPPKg=fHRPKPHKPKPKPhPHHPPKPhPHHPKHHPHhKf=iKPPKKHPHPPPUga==fURRRUgi;aHKTUKHPKKHPKHKHga==",
";aKTHHKHKPHPKHfa&&igPRUPPUTKf==igUKPUKHUUUTTKhi=gPTPHPPKKHhKPHHhHHhKPHHhHHPPKHHP;=hKTUUUHKUPKKgi==fKTUPKURPgiiaHTUKKHHhKKHHPga==",
";aKTPKKKPHKKHfa&=;gRUUKKPHUTKf==igPPPPUKKTKKPHf=fHRKPPKHPUHPHhHPHhhKhPKKPKHPKKHf=iHPKTKKUPPPKgi==fKTUKPKKPURg;;aKTPKHKHHHHHHga==",
";aKTHHKHhHHPfi&&igWPKHKPKKHKRHf;=igHKPKhUPPTTHhi=gUTHPPKKKKHPHhHKhHHhHhHKHKPKHg;=hHTPPUhKPKHgi=;fHRUKKKKKHKPRg;igKUPKHKhHKhPga==",
";aKTKKPKKHHfi&&;gWPKHKHKKPKHPRHf==igHHPPHKHKHHHg=aKRPHKHPPHHKhHHhPHPHPHHhHHHHHa=iHHKHKHPPHHgi==fHRPHKPKKHKHKPRg;iaKTKHHKHHHHga==",
";aKTHHKHHKff&&;gUUPKKPKHUKPPKPRHf;=igHHPhHPHhhHhi=gPPKPKKPhHhHhHHhPPHHhhhhghhg;=hHhHPHhPHHgi=;fHRPKPPKUHKPKKPUUg;ifKPHPHPHPPga==",
";aKTKHKHhgi;&;gPRPKKHHKUKHKKKHPTHf==igKKKPHKHhhHf=agKhKPKKKKhHPHPHKHPHHhghhhHa=iHhHKHPKKKgi==fHTPHKKKHKUKHHKKPRPf;igPPKKKHKPgi==",
";aKTKHKPgai&=iKPUKKHKPHKHKKHKHPPUHf;=igHHhHhUHKKfi=igghhHhHhHhhhHhHHgKghhgggg;=fKHUhHhHHgi=;fHUPPHKHKKHKHPKHKKUPhi;aKTPKPHKPga==",
";aPPHKPHa;=&;iHKKHHHHPPKKKPhHPhPHUHf;=agHKhKHhhhfa=;iaaffgffgggffgggffggfaai;=;fhhHKhKHga=;fHUHPhPHhPKKKPPHHHHKKhi;;gKUPTHHHga==",
"=iKPHKKf;=&=;ahHKHKPKHHHPHPHPHPhHPPHf;=;ghhghgfaa;=&==;;iiiiiiiiiiiiiiii;;====aafghghhg;=;fHPPHhPHPHPHPHHHKPKHKHha;;igKPKKKPga==",
"=iHPPKgi=&&=;aghhKUKPKUHHPHPHPHPPHHPHf==;gfgfaa;=====&&&&&&&&&&&&&&&&&&&&&&=&&=;aafgfg;==fHPHHPPHPHPHPHHUKPKUKhhga;;;agKUKPPgi==",
";;gggha&&&==;iaghhKKPHKUHKHKPhHKHPHHKhi;=;ii;===&&&&& ++++++++++++++++++++++ &-===;ii;=;ihKHHPHKHhPKHKHUKHPKKhhgi;;;;;agHTPKgi;;",
";;iaai=&agg;=;;iaghKHPKKHhHHhHhKPHPHHKai=====++++++                            &&&&;;;=ifKHHPHPKhHhHHhHKKPHKhgai==;;;;=aghhggi;;",
";;;&&&&gRRUKa===;ifhhHPHPKhPHPHHHHhhhfai&&++++++                                  &&&&&ahfhhhHHHHPHPhKPHPHhhf;;==aKUUga;aaaaa=;;",
";;;;;=gWRTTUUKa;=;iifhhhhHKHHHKHHKhgaii;&&                                            &fhfaghKHHKHHHKHhhhhfi;=;aKUUPKhaa======;;",
";;;;;gWRTPPKKUUKa==;iafgHhKhKHHhHhgaii;&                                              &=ffaaghHhHHKhKhHgfai;=aKUUKKPUUhga;&&&&;;",
";;;;;KWTUKUPPKKURKa=;;iaghhKhHhHhaii;;&                                                &;aaiiahHhHhKhhgai;=aKRUKKPPUKUKgf;=&&&;;",
";;;;gWRKPKPKKPHKKURPa==iaggghKhgaii;&&                                                  &=;;iiaghKhgggai=aPRUKKHPPPKPPPhf;;&&&;;",
";;;;KWTPKKUKKHKPHKHURKa=;iafggfii;=+                &+++++++++++++++++++o   &&           &&==;iifggfai;aKRUHKHPKHKKUPKPKfa;&&&;;",
";;;;RRUKPPKUKPPHKKHKHURKa=;iiai;;=+           ++&+ &==&==&===&=&&=&&=&=+++ &;;&            &&=;;iaii;=KRUHKHKKHPPPUKPPKUga;=&&;;",
";;;gRTUUHKKHPHPPKPUHKPURRg==;===&+           +;-=& &;----=-==y--y--y-y-=&&  &&               &====;=gRRUPKHUPKPPHPHPKHUUhg;=&&;;",
";;;KRUPHUKHPHPKPUHKPPKKPTPg=&&&&            +-i;=+ &i;-y;;y-y-yy-yy;y;;=&+   &++++++    ++++  &&&&&gRTPKKPPKHUPKPHPHKUHPKga;&&;;",
";;;RRKKHHPKHPKPHTUPKHPPHTKh=&o     &&&=&&   ii;;=+ &yy-;--;;yyy-yy;y--y=&+  +-yaaiy;&   +&=++     =URTHPPHKPUTHPKPHKPHHKKga;&&;;",
";;;RTHHPKKHHPHHPKPHPKHHPPHf;&    &&&==;=&   ii;;=+ &-;y;-;-yy-y--y-;y--=&+ +yiiy;;y;;+ +&==&&+   &hhUTPHHKPHPKPHHPHHUKPHHhf;&&;;",
";;;RUKPUPHKPHPPHHKPHPHPPHha;&   &&&=;y;=&   i7007+  &=========--=------&+  +ay90VCCry+ +=;;;=&+  &ghHTTPHPHPKHHPPHPKHPUPKhf;&=;;",
";;;RPHKPKKPKKKKHPPHPHKPKhf;=o  &&&=;y;;=+  0CAAZ07   +++++++++&&+&&&&&&+   +a9CZZAAASr +=iyy-=&+ =ahhPTPKHPHPPHKKKKPPKPKHhf;&&;=",
";;;KPPKKHKKHKPHhKHPPHKUhga=&o  &&=;y;--=+0ADDAAAC0r          &&            +aCCCCCZAAAC+=i;---=+  =aggTUKHPPHKhHPKKPKPKKPha;&&==",
";;;afghhHHKHHKHHHKHHPUKhf;+   &&&;yyy--7CDDAAZZVCSV         &;;&           +aZCr790CCAAC=i;----&&  =ifHTUPHHKHPhKPPKKKhHhaa;&&==",
";;;;aaaafggghhKKPKKPPPHga;+   &&=;;;-=7ZDAASCVr$rCV&&&&&&    &&    &&&&&&&& aZC790$9VCAACiy;---=&+ =;agPTPPPPPKKhhgggaaaaa;;&&==",
";;=======;;iiaafgghKKKha;&+  &&&==---;VDAACVr@@@rVr&&;y-=&&  VCCZSSr$aiiiy& aCC9   $70CAAC;;y--==&  =ifhTPKhggaaaii;;=========&&",
";;;;;;======;;;;iiaaffa;=&   &&=====;0ADACr$@ @@rV9-aiiyiaa9CSAQQQQAAVyy;;& yCZr    #7VCAA0y-y---&& ==ifaaaaii;===============&&",
"i=;gUETPHhi========;;ii;&&   &&===-y7CAAZV$@  @%VV7iiiiyyyyVSAQAAAZ9CZSSVy& yVZV     #0CAAZ7--;=-=&o =;;============iHHKURUg;=&&",
"i=KTTTPTUTRRUKhgi=======o   &&&===--7ZAAC9ro  @8VV7aiyy;;;-CSAAAAAAAZCQASV  ;0CV    o@8CAAZ7yyy--=&   ========ighKURRRUUUKPha=&&",
"i=KEPHHKKPPPUTRRWWEUKa-=+   &&&===-$0AAZVCr@  @rCC7iyy;;;--CSAAAAAAAAAAASS  ;rCCo   @@$VZAA0$;y-;=&  yifgKKUEWWRRTURURPPHHPga=&&",
"i=KWHHKHKKHKKHKPUUUURgyy=+  &&&===;7CAACCVr#oo@rCZr;;;y;;-=CSAAAACV88-=-8V  =rZCo  oo$9VCAAC7--yy=& -ffKUWRUURRPKHPKHUHHKHHga=&&",
"i=KRKKHHUKKPKKPKUHKKPgiy=+  &&&&+&$7ZAACZVr$@@o9CSV7-;y;;-=CSDAASV 0   =;=  =0SC@  @@89VCAAZ7$;-y&  ;ifhTEPKKHKKPKKPKKUHHKKga=&&",
"i=KRHHKKPHKHPPHPHPKKKhy-&+   &&&&&$0SAACZVr%%@o%CAZV7&===&;VSDDASV9 C    =  #CAC#  @$8VVCAAS0$-=&&  -iafTRKKKPHPHPPHKHPKKHHga=&&",
"i=KTKKKHKHHKHHPKKHKKPhy=++        $0AAACZCr%%@o#CAAZ00   0CZADDAASVr9C9    9CAAC% o@9VCVAAAA0$&&&   ;-ifTRPKKHKKPHHKHHKHKKKga=&&",
"i=KTHKHKPHPHKPHPKhKHHhy=++        $VAAACCCr%#@#oVAAZCZACZAAAADDAAASCVCZAAAAAAAAC8 @@90CVAAAAV$      --yhTEHHKhKPHPKHPHPKHKHga=&&",
"i=KTPKhhHKHKKHHKHKKHPhy&&+  &&    $VAAACCVr%#oooVAASSAAAAAAQQQDAAAAAZZAACCZSAAAV8@#$$0VVSAAAV$      y;;KTEPHKKHKHHKKHKHhhKPga=&&",
"i=KTHHhKHhKHHHHhHPHKHgy=&+ &;;& ++$VAAACV0r%%o@o%CZZSAAAQQQQQQQDAAAAAAAACC0VVV08$#$9900CSAAAV$  &&  -;ihTEHKHPhhHHHHKhHKhHHga=&&",
"i=KTPhKHKHKHKHPHHPKHHhy=&+ &==& &-$VAAACV0C%8#@o#%99VAAQADDQQDDAAAAAAAASCC9@@@@@$$990C0CZAAAV$  &&& y;ifTTHHKPhhPHKHKHKHKhPga=&&",
"i=KUHHHHhHhHKhHHHPHKHhy&++ &==& +=$VAAAVC0A797#@oo#%%AAAADDDDDDAAAAAAAASCV9@@@@%r7990A0CZAAAV$  &=& --;gTEHKHPHhHhKHhHhHHHHga=&&",
"i=HKPhPKHhKhUHKhHHKHHhy+++ &==& +=$VAAAVC0Z7V9#7@@@o%AAAADDDAAAASSSSSSCCVV7@#%90r79V0Z0CCAAAV$  &;& -=-fTTHHKPHhKHUhKhHKPhPga=&&",
"i=gHKHKHKPhHhPhHKhHhhf-=&+ &==& +=$VAAAVVCC0C0#V7#@@@AAAADAAAAAZCZZZZCCC09@@%77rV7$C0CCCVAAAV$  &y& &yyfTUHKHhKHhPhHhPKHKHKga=&&",
"i&fggggghHhgHgggggfffa=-&+ &==& +&$VAAACVSC0V09CV%%#@ZAAAAAAASCC0CCCCCCVr7@#9%7VC97V0VSCVAAAV$  &;& &-ayHhggfgggggHghHhggggfa&&&",
"i&ifaaffffaaaffgffaaai=&+  &==& +&$0AAAZCSC000rV777%7VAAAAAASCCV9CCCCCV09@@%7$97Vr7V0VSCCAAAV$  &-&& &;iagaafffgffaaaffffaaai&&&",
"i&&&&&&&&&&&&&&&&&&&&&+    &==& +&$0AAAZCAC0C0Cr079r7rCAAAAAZCCCVCVVVVrr$@@$9970rC$C0VACZAAA0$  &=&&&   &&&&&&&&&&&&&&&&&&&&&&&&",
"ii;;;;================+     &&  +&$0ZAASCAC0C0CrC0r97$VAAAAAZCCVVVVV0r97@@@$9r8CrC0C0VAVSAAZ0$  &=&&& &=;iaaaaaaaaaaaaaaaaai&&&&",
"iigTRREWWWERRRRRWRWRUg=&+       ++$0CAASCAC0SCr007Vr9@9ZAAAACCCV0VVV098$@@  rV900rCS00AVSAAC9$  &&&& &;igHUTEWWWERRRRRWRWRUg;&&&",
"iiTWRUURRRTTURURUUURPhyy-+        $7CAAACSCCSVCV7$$Vr@$CAAACCCC0r00r98%@@   V9$7VCVSV0SCAAAC7$      &affHTRUURRRTTURURUUURPha&&&",
"iiTEPKKHKPKHPKHUPPHHPg--y=        $7VAAACCVASVCC0  $9$@VASZCCCVr9r977%#@   &7$#0CVVSV0CCAAAV7$      ifaaPUPKKHKPKHPKHUPPHHPga&&&",
"iiTRKKKPHKPKKPKKHHKHHg==-=        $$0AAACSVASV0CV  $7$@VASVVV0r9977%%##@  +=###VV0VSCVSCAAA0$$+     iayiTUKKKPHKPKKPKKHHKHHga&&&",
"iiTRPKKHKPHPPHKHUHHKKg=+==  =;;;=  $0AAAAACAAV$9$   $7@9AAV9%%%%%%%%##@#  =i-==rVrCCCVACAAA0$&&-&   ;yifTUPKKHKPHPPHKHUHHKKga&&&",
"iiTRKKKPHKPHHKHHPKKHHg=&&& +;====  $0ZAAAACAAV$$     $ @AACr########o@7r  &;==&-r$CCSCACAAZ0$&=i=& &;iigTUKKKPHKPHHKHHPKKHHga&&&",
"iiTRPKKHKHKPHPHPKHKKKg&=&+ ==&===  $rCAAAAAAAV         @AAC0$#@#$#ooo9VC  &;;y;yy=CCACAZAACr$&;i=& &iiaHTPPKKHKHKPHPHPKHKKKga&&&",
"iiTEHHKhKPHPKHPHPKHKHg++=+ =&====+ $9VAASACAAC   =iafi;@ASCr7#@$$$#o9VCA  &-;;y--&CCACAZAAV9$&i;=&  ayaHTPHHKhKPHPKHPHPKHKHga&&&",
"iiTEPHKKHKHHKKHKHhhKPg-&=& =&&====  7rCAASCACV  =iyyyyy;CSC97$#$##$7VCZA  &;;-;ii&CCACSAACr7&&;=&&  aiigTUPHKKHKHHKKHKHhhKPga&&&",
"iiTEHKHPhhHHHHKhHKhHHgy-&& &&&&&==  77VAASCACV  =yy;yyy;CAC77$$$##$7VCSC  =&=&&=&+CCACSAAV77&&&&&   iaagTUHKHPhhHHHHKhHKhHHga&&&",
"iiTTHHKPhhPHKHKHKHKhPg-+&+ &&&&&&&&  7rZAACCCV  =--;;-;;0AC07$$####$CCS0          CCZCAAZr7         ;;ifPUHHKPhhPHKHKHKHKhPga&&&",
"iiTEHKHPHhHhKHhHhHHHHg=+++ +&&&&&&&& 77VAAACCC  +=======7CCV7$######CCS7   &&;&   CCZAAAV77         ;=ihKPHKHPHhHhKHhHhHHHHga&&&",
"iiTTHHKPHhKHUhKhHKPhPg=+&&  ++++++++  $rZAASCC   +++++++7CCV$#######%ZZ   &&==&&  CCZAAZr#   &      ;;ifKKHHKPHhKHUhKhHKPhPga&&&",
"iiTUHKHhKHhPhHhPKHKHKg&&=&            #$0AAASC          VAC99########CA    &&&&   CSAAA0##  &;&     ;iffHKHKHhKHhPhHhPKHKHKga&&&",
"iiHhggfgggggHghHhggggf==&+             o#VAAAC         rCA99$########9Ar          CAAAV#o    &o     &;ifhhggfgggggHghHhggggfa&&&",
"ii;gaafffgffaaaffffaaa&++   &;aaiiiaaai$70CAAC        7CADA9 ##   #VAAAC&+  =iaai=ZAAC0oo&&    ;;=& &&+;agaafffgffaaaffffaaai&&&",
"ii====================+    &;iayyy--;;-;$$0ZAC ++====&AAACVVV     VACrAAZ9 =aaii;=SAZ0o$&+&   agai=&   &=====================&&&",
"ii====================     &;yyyyy-;--;-=$$0ZC &-aaaiAC#Ackk99    9r0VACAC =ay;-i=AA0$$&&&+  -aai;i;&   =====================&&&",
"iigTRREWWWERRRRRWRWRUg=&+  &;-yi;;;;;---=&$$0C &=iiiaAZkAjcMBBBBBBBMcjA99A =ayi;;=A0$9&&&&&  -ii;;;;=&;ahTRREWWWERRRRRWRWRUg;&&&",
"iiTWRUURRRTTURURUUURPhy-=+ &;--;----;;y-=& $$0 +=yy;yjAcBNBmnnnnnnnmBBBcA0 =ay-y;=079&&&&=&  =;-;;==&=afhWRUURRRTTURURUUURPha&&&",
"iiTEPKKPKHPKHUPPHKKHPg&=+& +=;;-;;;--;-;=&  $$ +&;;-jBNNmnnccxxxxxxxxnMBBnj=iy-y;=7V&&++==&  &=--;===yy;hEPKKPKHPKHUPPHKKHPga&&&",
"iiTRKKHKPKKPKKHHKUKHHg&&&& +&y-===;;--;-&&   $&+=y;MBNnnnxxxxzzzzzzzzzzzcMB<i-;y;=V&++&=-;&  &&=;-=&=;;ihRKKHKPKKPKKHHKUKHHga&&&",
"iiTRPKKPHPPHKHUHHHhKKg++==  +&&&&&&&&&&&&    =-+=jBNnnxxk41<111111333kkzxxnBBj;;;=+++&=--;&   &&==&&=y-ifRPKKPHPPHKHUHHHhKKga&&&",
"iiTEHHHKPHHKHHPKKPHKHg++++      &&           &=yjBMncxk<<<11134433111<<4kkxxnBj-y=++==;;--&  &  &&&&--iahEHHHKPHHKHHPKKPHKHga&&&",
"iiTEPHKHKPHPHPKHKHKKPg&===     &;;&           yjNMnck1:<1::         ::11<4xxxnBj;;&=;=---y& &;=     yyyihEPHKHKPHPHPKHKHKKPga&&&",
"iiTEHKKPHPKHPHPKHhKHHg&+=+      &&            jMNNnj:<<:                <<4xkxnNj-=--=;y;-& &;&o    -y-ahTHKKPHPKHPHPKHhKHHga&&&",
"iiTTHHHKHHKKHKHhhKPhPg=&++   -a=   -aaaai;&  jNvbc4<<<<                  <<<2w6nMj&yy;;y;-& &&&o-a& --agfTHHHKHHKKHKHhhKPhPga&&&",
"iiTEHKhhHHHHKhHKhhKHHg&++&  &-ii& &-iiai;=& 3NvgKaq,<<                    ,qaJglnm3&-;-;-;&  & =aa& ;-=aaUHKhhHHHHKhHKhhKHHga&&&",
"iiTTHHhhPHKHKHKHKKPhPg=++&  &=yy& &=yyy;==& mNuUITJa*X                  X*aHTIUyxm4+&yy--;&    ;ai= ;--iaUHHhhPHKHKHKHKKPhPga&&&",
"iiTUHKHhHhKHhHhHHHKHKg=&=&  &=-y& &=-yi;;=+4MvgULLIYHp&X              X&pHTILLUg6xn4+=--=;&    ;ay= ;i;igHHKHhHhKHhHhHHHKHKga&&&",
"iiHhggfgggggHghHhggggf==&+  &=--& &=--;;-=+nmtPULLLLIYGiyyyyyyyyyyyyyyiGYUKLLLUPezxk&+=---&    -ay= &;iighggfgggggHghHhggggfa&&&",
"ii;gaafffgffaaaffffaaa=++   +=;=& +=;;-===3nnviGYILLLLUTTTTTTTTTTTTTTTTULLLLIYGi5zzx3+==--+    =iy& &&=iagKKhffgffaaaffffaaai&&&",
"ii====================      +==&& +&&-====4ccckqpHYILLLLLLLLLLLLLLLLLLLLLLIYHpqjkkzz4++==&+    +&=&     =====================&&&",
"ii====================       +&&   +&&&&& kzzxj1,*aUILLLLLLLLLLLLLLLLLLLLIUa*X 3zkkzk+++++&             =====================&&&",
"iigTRREWWWERRRRRWRWRUg-=&                3xzzz31  +aYLLLLLLLLLLLLLLLLLLLLTa+   >ckkzx3++++   &&     +;iaHTRREWWWERRRRRWRWRUg;&&&",
"iiTWRUURRRTTURURUUURPhy==&               4xzzk3>   *GULLLLYYYYYYYYYYLLLLUG*     ckkzz4      &;;&    ;aigTWRUURRRTTURURUUURPha&&&",
"iiTEPKKHKHPKhHHKHKKHPgy-+=   &&&&&&&&&&& kzzzj1    XiYLLLIH;;;;;;;;HILLLYiX     zjkzzk       &&     yiagTEPKKHKHPKhHHKHKKHPga&&&",
"iiTRKKKPHPHKHPKHKUKHHg-==& &&=iiaffaiiy;&xzzk3>     &FULLLTaO    OaTLLLUF&      1zkkzx   &-iiaaii=  ;ygHTRKKKPHPHKHPKHKUKHHga&&&",
"iiTRPKKHUUKHhKhHHHhKKgy-== &=;y;iiiiy;;=&zzkk3>     .uUPLLIK=    =KILLPUu.      >ckkzx  &iaiyyiafy& yyagTRPKKHUUKHhKhHHHhKKga&&&",
"iiTEHKHPKPHPKKHKKhKHHgay-= &=;;i;;ii;i;=+zkkk3       &gULLLTs+  +sTLLLUg&        ckkkz  =aiy;yyiay& yifHTPHKHPKPHPKKHKKhKHHga&&&",
"iiTTHHKPHhKHUhKhHKPhPgy-&= &---;-----;y=+kjkk3        yIPLLIL=  =LILLPIy         ckkkz  =iyy-yiii-& yiagTPHHKPHhKHUhKhHKPhPga&&&",
"iiTUHKHhKHhPhHhPKHKHKgy==+ &-;---;-;---=+jjkk3        +fYLLLYf++fYKLLYf+         ckkkz  ;i;---y;i-+ -yifPKHKHhKHhPhHhPKHKHKga&&&",
"iiHhggfgggggHghHhggggf-+++ &-yy--y-yy--=+jjkz3         -LILLPIyyIPLLIL-          ckkkk  -i;-----y;+ &-iaHhggfgggggHghHhggggfa&&&",
"ii;gaafffgffaaaffffaaa++++ &-y-=-y-y-=y=+jjzz3>        +dYLLLUggULLLYdO          ckkkk  -iy;-----y-& &-ifgaafffgffaaaffffaaai&&&",
"ii;===================     +---;-----;-=+4jzxk1         *KILLPUUPLLIK=          >xkkj4  ;i;;y--=-=-&   &;====================&&&",
"ii;===================     &==;-====;--=+<kzxx3         OaTLLLLLLLLTaO          1xkjj3  =iyy-y----=&&  &;====================&&&",
"iigTRREWWWERRRRRWRWRUg-=&  &-y==-y-y====+ kzxxk>         *HILLLLLLIH*           kxkjj&  &yy;--;=-y-&=;iagTRREWWWERRRRRWRWRUg;&&&",
"iiTWRUURRRTTURURUUURPh=-=+ +---y-----y-=+ 4xxxk3         XpYLLLLLLYpX          1cxjj4&  &;i;yyy--=;&-iayTWRUURRRTTURURUUURPha&&&",
"iiTEPKKHKHPKhHHKHKKHPg;y=+ &-=---=-=--;=& <kxcx3          &GULLLLIG&          >4ckjj3&  &-i;y;y-;=; -ifgTEPKKHKHPKhHHKHKKHPga&&&",
"iiTRKKKPHPHKHPKHKUKHHg;-=+ &=y;-;y;y;-=&+  kxxck:         .uYLLLLYu.          3czjj4&&  &&;y;--yy;= -ygKTRKKKPHPHKHPKHKUKHHga&&&",
"iiTRPKKHUUKHhKhHHHhKKg-==& &&===;-;-=&++&  <kxcc:          &hULLUh&          :3zkjj3&&   &-yy-;-y-& ;yigTRPKKHUUKHhKhHHHhKKga&&&",
"iiTEHHKhKKHKKPHPKPHKHgy+&+  &&&&&&&&&&&&    4kxcjj          uTLLTy          3334kjk&&&   &=yy;-==+& -a-fTEHHKhKKHKKPHPKPHKHga&&&",
"iiTEPHKKHKHHhKPHKHKKPgi=&+   &&&&&&&&&      <4kzxjj         yTLLTy         33334jj3+;&    &=;=&+++  -aihTEPHKKHKHHhKPHKHKKPga&&&",
"iiTEHKHPKPHPKKHKKhKHHgi==&                   <kzzxxj<       yTLLTy       >>>>134j<&&y&  &   &++     ;iihTEHKHPKPHPKKHKKhKHHga&&&",
"iiTTHHKPHhKHUhKhHKPhPg;=++                    <kxxxj<<<     yTLLTy     >>>>>>134<&&-y& &a&          -=isTTHHKPHhKHUhKhHKPhPga&&&",
"iiTUHKHhKHhPhHhPKHKHKg&=++   &&&&&&&&&&&&&&&&&&<jkkjjj<<<1  yTLLTy  3jjj41<<<13<&&-yy& i;=  &&&&&&  --i;TUHKHhKHhPhHhPKHKHKga&&&",
"iiHhggfgggggHghHhggggf=+++  &;aaaaaaaaaaaaaaaa--<jkzxxcmBBBMyTTTTyMMMMnk433333<&&-yy-& ;;= =;aaaa;& +==iHhggfgggggHghHhggggfa&&&",
"ii;gaafffgffaaaffffaaa+++  &;iiiiiiiiiiiiiiiyyy==<4kzxxxxnnnlyyyylnnnnxz43333<&&-;y-;& =;=&;aiiiii=& +++;gaafffgffaaaffffaaai&&&",
"ii&&&&&&&&&&&&&&&&&&&&     &yyyiyyy;yiyyy;yyyyyy&&<4jkzzxxxxxxxxxxxxxxxz4333<&=;;;y-y& &&&&iayyyyi;&&  &&&&&&&&&&&&&&&&&&&&&&&&&",
"ii&&&&&&&&&&&&&&&&&&&&     &yyyyy;yyyyy;yyyi;y-yy=+&:3jkkkzzzzzzzzzzzzzk43<  i;--=---&  & &yiy;yyyy&&  &&&&&&&&&&&&&&&&&&&&&&&&&",
"i;gTRREWWWERRRRRWRWRUg--&+ &y;;y--y-;y--y---y;-;-;-&+&&<33jkkkkkkkkkj33<+&&  yy-;;;--&    &yii;iy;y& ;aagTRREWWWERRRRRWRWRUg;&&&",
"i;TWRUURRRTTURURUUURPh==-= &;iy--;y-y--;y--y;--y;-;;-&++&::111111111:&&& ;;& ;y==---=&    &;iii;y-=& aiyTWRUURRRTTURURUUURPha&&&",
"i;TEPKKHKHPKhHHKHKKHPg&++- &---;--;;-;--;;---;;;---=--&&==;;;;;;;;;;;+  ;a;&&&&&&&&&&&  & &&;y;y;-& ;--;TEPKKHKHPKhHHKHKKHPga&&&",
"i;TRKKKPHPHKHPKHKUKHHg&==- &-y;-;--=;-;--=;-;--;--=--;==-ggggggggggggf; &;&&           &i& &=;y;;=& ayy;TRKKKPHPHKHPKHKUKHHga&&&",
"i;TRPKKHUUKHhKhHHHhKKg+&==  ===-yy;-=-yy;-=-----==----==fKKKPKKKKHKHKKf; &&             &   &&===&& yy;=TRPKKHUUKHhKhHHHhKKga&&&",
"i;TEHKHPKPHPKKHKKhKHHg&&=+   &&&==-=&&==-=============ffHHKHKHHKKHHHKHHff                           -y;;TEHKHPKPHPKKHKKhKHHga&&&",
"i;TTHHKPHhKHUhKhHKPhPg&=-yfhUEEEEEEEEEEEEEEEEEEEEEEEEEEUUHHKHKHKHHHHKPURRRRRRRRTTTEEEEEERRRRREEEERPHgai;TTHHKPHhKHUhKhHKPhPga&&&",
"i;TUHKHhKHhPhHhPKHKHKg;iahPUETTTTPPUUPUPTUTTETTTTPTPTTPUUPUPTUTTUPPPPKKKKKKKKPKKKKPPPPPPPPPPPUTUTUUPhai;TUHKHhKHhPhHhPKHKHKga&&&",
"i;HhggfgggggHghHhggggf;iahHHUPPRPPPPPPPKKKUUUPPRPPKPPPPPPPPKKKUUKKHHHKHHHHHKHKHHKKPHHKKKPUPTKKPKHKHHhai;HhggfgggggHghHhggggfa&&&",
"i;;gaafffgffaaaffffaaa;iahhHPPPPPPHKKHPKKKhHPPPPPPRHPHHKKHPKKKhHHHHHHKKHHKHHKHKHKHHhKHHhKKKKPKPHKhHhhai;;gaafffgffaaaffffaaai&&&"
};
